<mxfile host="app.diagrams.net" agent="Mozilla/5.0 (Windows NT 10.0; Win64; x64) AppleWebKit/537.36 (KHTML, like Gecko) Chrome/127.0.0.0 Safari/537.36" version="24.7.6">
  <diagram name="Page-1" id="tsCt6sGFCdCqvv6nTQGz">
    <mxGraphModel dx="955" dy="511" grid="1" gridSize="10" guides="1" tooltips="1" connect="1" arrows="1" fold="1" page="1" pageScale="1" pageWidth="827" pageHeight="1169" math="0" shadow="0">
      <root>
        <mxCell id="0" />
        <mxCell id="1" parent="0" />
        <mxCell id="m5Aj_yNBHkYlO3eiFWFl-18" style="edgeStyle=none;rounded=0;orthogonalLoop=1;jettySize=auto;html=1;exitX=1;exitY=0.3333333333333333;exitDx=0;exitDy=0;exitPerimeter=0;" edge="1" parent="1" source="m5Aj_yNBHkYlO3eiFWFl-1">
          <mxGeometry relative="1" as="geometry">
            <mxPoint x="110" y="160" as="sourcePoint" />
            <mxPoint x="346.89906676290707" y="57.80510298897093" as="targetPoint" />
          </mxGeometry>
        </mxCell>
        <mxCell id="m5Aj_yNBHkYlO3eiFWFl-20" style="rounded=0;orthogonalLoop=1;jettySize=auto;html=1;exitX=1;exitY=0.3333333333333333;exitDx=0;exitDy=0;exitPerimeter=0;" edge="1" parent="1" source="m5Aj_yNBHkYlO3eiFWFl-1" target="m5Aj_yNBHkYlO3eiFWFl-6">
          <mxGeometry relative="1" as="geometry" />
        </mxCell>
        <mxCell id="m5Aj_yNBHkYlO3eiFWFl-21" style="edgeStyle=none;rounded=0;orthogonalLoop=1;jettySize=auto;html=1;exitX=1;exitY=0.3333333333333333;exitDx=0;exitDy=0;exitPerimeter=0;" edge="1" parent="1" source="m5Aj_yNBHkYlO3eiFWFl-1" target="m5Aj_yNBHkYlO3eiFWFl-7">
          <mxGeometry relative="1" as="geometry" />
        </mxCell>
        <mxCell id="m5Aj_yNBHkYlO3eiFWFl-1" value="Anggota" style="shape=umlActor;verticalLabelPosition=bottom;verticalAlign=top;html=1;outlineConnect=0;" vertex="1" parent="1">
          <mxGeometry x="50" y="160" width="50" height="90" as="geometry" />
        </mxCell>
        <mxCell id="m5Aj_yNBHkYlO3eiFWFl-10" style="edgeStyle=orthogonalEdgeStyle;rounded=0;orthogonalLoop=1;jettySize=auto;html=1;exitX=0.5;exitY=1;exitDx=0;exitDy=0;entryX=0.5;entryY=0;entryDx=0;entryDy=0;" edge="1" parent="1" source="m5Aj_yNBHkYlO3eiFWFl-4" target="m5Aj_yNBHkYlO3eiFWFl-5">
          <mxGeometry relative="1" as="geometry" />
        </mxCell>
        <mxCell id="m5Aj_yNBHkYlO3eiFWFl-4" value="Mendafatar Akun" style="ellipse;whiteSpace=wrap;html=1;" vertex="1" parent="1">
          <mxGeometry x="320" y="30" width="140" height="70" as="geometry" />
        </mxCell>
        <mxCell id="m5Aj_yNBHkYlO3eiFWFl-11" style="edgeStyle=orthogonalEdgeStyle;rounded=0;orthogonalLoop=1;jettySize=auto;html=1;exitX=0.5;exitY=1;exitDx=0;exitDy=0;" edge="1" parent="1" source="m5Aj_yNBHkYlO3eiFWFl-5" target="m5Aj_yNBHkYlO3eiFWFl-6">
          <mxGeometry relative="1" as="geometry" />
        </mxCell>
        <mxCell id="m5Aj_yNBHkYlO3eiFWFl-5" value="Login" style="ellipse;whiteSpace=wrap;html=1;" vertex="1" parent="1">
          <mxGeometry x="320" y="120" width="140" height="70" as="geometry" />
        </mxCell>
        <mxCell id="m5Aj_yNBHkYlO3eiFWFl-12" style="edgeStyle=orthogonalEdgeStyle;rounded=0;orthogonalLoop=1;jettySize=auto;html=1;exitX=0.5;exitY=1;exitDx=0;exitDy=0;" edge="1" parent="1" source="m5Aj_yNBHkYlO3eiFWFl-6" target="m5Aj_yNBHkYlO3eiFWFl-7">
          <mxGeometry relative="1" as="geometry" />
        </mxCell>
        <mxCell id="m5Aj_yNBHkYlO3eiFWFl-6" value="Mencari Data Buku" style="ellipse;whiteSpace=wrap;html=1;" vertex="1" parent="1">
          <mxGeometry x="320" y="210" width="140" height="70" as="geometry" />
        </mxCell>
        <mxCell id="m5Aj_yNBHkYlO3eiFWFl-7" value="Meminjam Buku" style="ellipse;whiteSpace=wrap;html=1;" vertex="1" parent="1">
          <mxGeometry x="320" y="300" width="140" height="70" as="geometry" />
        </mxCell>
        <mxCell id="m5Aj_yNBHkYlO3eiFWFl-8" value="Mengembalikan Buku" style="ellipse;whiteSpace=wrap;html=1;" vertex="1" parent="1">
          <mxGeometry x="320" y="390" width="140" height="70" as="geometry" />
        </mxCell>
        <mxCell id="m5Aj_yNBHkYlO3eiFWFl-9" value="Melihat Riwayat Peminjaman" style="ellipse;whiteSpace=wrap;html=1;" vertex="1" parent="1">
          <mxGeometry x="320" y="480" width="140" height="70" as="geometry" />
        </mxCell>
        <mxCell id="m5Aj_yNBHkYlO3eiFWFl-19" style="rounded=0;orthogonalLoop=1;jettySize=auto;html=1;exitX=1;exitY=0.3333333333333333;exitDx=0;exitDy=0;exitPerimeter=0;entryX=0.082;entryY=0.794;entryDx=0;entryDy=0;entryPerimeter=0;" edge="1" parent="1" source="m5Aj_yNBHkYlO3eiFWFl-1" target="m5Aj_yNBHkYlO3eiFWFl-5">
          <mxGeometry relative="1" as="geometry" />
        </mxCell>
        <mxCell id="m5Aj_yNBHkYlO3eiFWFl-22" style="edgeStyle=none;rounded=0;orthogonalLoop=1;jettySize=auto;html=1;exitX=1;exitY=0.3333333333333333;exitDx=0;exitDy=0;exitPerimeter=0;entryX=0.015;entryY=0.386;entryDx=0;entryDy=0;entryPerimeter=0;" edge="1" parent="1" source="m5Aj_yNBHkYlO3eiFWFl-1" target="m5Aj_yNBHkYlO3eiFWFl-8">
          <mxGeometry relative="1" as="geometry">
            <mxPoint x="110" y="200" as="sourcePoint" />
            <mxPoint x="350" y="320" as="targetPoint" />
          </mxGeometry>
        </mxCell>
        <mxCell id="m5Aj_yNBHkYlO3eiFWFl-23" style="edgeStyle=none;rounded=0;orthogonalLoop=1;jettySize=auto;html=1;entryX=0.02;entryY=0.419;entryDx=0;entryDy=0;entryPerimeter=0;" edge="1" parent="1" target="m5Aj_yNBHkYlO3eiFWFl-9">
          <mxGeometry relative="1" as="geometry">
            <mxPoint x="100" y="190" as="sourcePoint" />
            <mxPoint x="332" y="427" as="targetPoint" />
            <Array as="points">
              <mxPoint x="200" y="330" />
            </Array>
          </mxGeometry>
        </mxCell>
      </root>
    </mxGraphModel>
  </diagram>
</mxfile>
